<svg width="18" height="19" viewBox="0 0 18 19" fill="none" xmlns="http://www.w3.org/2000/svg">
<path d="M17.6203 4.9398C17.5178 4.55925 17.3173 4.21229 17.0386 3.93362C16.76 3.65496 16.413 3.45437 16.0325 3.35194C14.6311 2.97266 9 2.97266 9 2.97266C9 2.97266 3.36887 2.97266 1.96752 3.35194C1.587 3.45437 1.24005 3.65496 0.961397 3.93362C0.682748 4.21229 0.482174 4.55925 0.379749 4.9398C0.118085 6.36904 -0.00889312 7.81969 0.000483683 9.27266C-0.00889312 10.7256 0.118085 12.1763 0.379749 13.6055C0.482174 13.9861 0.682748 14.333 0.961397 14.6117C1.24005 14.8904 1.587 15.0909 1.96752 15.1934C3.36887 15.5727 9 15.5727 9 15.5727C9 15.5727 14.6311 15.5727 16.0325 15.1934C16.413 15.0909 16.76 14.8904 17.0386 14.6117C17.3173 14.333 17.5178 13.9861 17.6203 13.6055C17.8819 12.1763 18.0089 10.7256 17.9995 9.27266C18.0089 7.81969 17.8819 6.36904 17.6203 4.9398ZM7.2001 11.9727V6.57266L11.8734 9.27266L7.2001 11.9727Z" fill="#0F2A59"/>
</svg>
