<svg width="18" height="19" viewBox="0 0 18 19" fill="none" xmlns="http://www.w3.org/2000/svg">
<path d="M17 13.9091C17 14.1136 16.9621 14.3807 16.8864 14.7102C16.8106 15.0398 16.7311 15.2992 16.6477 15.4886C16.4886 15.8674 16.0265 16.2689 15.2614 16.6932C14.5492 17.0795 13.8447 17.2727 13.1477 17.2727C12.9432 17.2727 12.7424 17.2594 12.5455 17.2329C12.3485 17.2064 12.1307 17.1591 11.892 17.0909C11.6534 17.0227 11.4754 16.9678 11.358 16.9261C11.2405 16.8844 11.0303 16.8068 10.7273 16.6932C10.4242 16.5795 10.2386 16.5113 10.1705 16.4886C9.42803 16.2235 8.76515 15.9091 8.18182 15.5454C7.2197 14.9469 6.2197 14.1288 5.18182 13.0909C4.14394 12.053 3.32576 11.053 2.72727 10.0909C2.36364 9.50755 2.04924 8.84468 1.78409 8.10225C1.76136 8.03407 1.69318 7.84846 1.57955 7.54543C1.46591 7.2424 1.38826 7.03218 1.34659 6.91475C1.30492 6.79733 1.25 6.6193 1.18182 6.38066C1.11364 6.14202 1.06629 5.92422 1.03977 5.72725C1.01326 5.53028 1 5.32952 1 5.12498C1 4.42801 1.19318 3.72346 1.57955 3.01134C2.00379 2.24619 2.4053 1.78407 2.78409 1.62498C2.97348 1.54164 3.23295 1.4621 3.5625 1.38634C3.89205 1.31058 4.15909 1.27271 4.36364 1.27271C4.4697 1.27271 4.54924 1.28407 4.60227 1.3068C4.73864 1.35225 4.93939 1.64013 5.20455 2.17043C5.28788 2.31437 5.40152 2.51892 5.54545 2.78407C5.68939 3.04922 5.82197 3.28975 5.94318 3.50566C6.06439 3.72157 6.18182 3.92422 6.29545 4.11361C6.31818 4.14392 6.38447 4.23861 6.49432 4.39771C6.60417 4.5568 6.68561 4.69127 6.73864 4.80111C6.79167 4.91096 6.81818 5.01892 6.81818 5.12498C6.81818 5.27649 6.71023 5.46589 6.49432 5.69316C6.27841 5.92043 6.04356 6.12877 5.78977 6.31816C5.53598 6.50755 5.30114 6.70831 5.08523 6.92043C4.86932 7.13255 4.76136 7.3068 4.76136 7.44316C4.76136 7.51134 4.7803 7.59657 4.81818 7.69884C4.85606 7.80111 4.88826 7.87877 4.91477 7.9318C4.94129 7.98483 4.99432 8.07574 5.07386 8.20452C5.15341 8.33331 5.19697 8.40528 5.20455 8.42043C5.7803 9.45831 6.43939 10.3485 7.18182 11.0909C7.92424 11.8333 8.81439 12.4924 9.85227 13.0682C9.86742 13.0757 9.93939 13.1193 10.0682 13.1988C10.197 13.2784 10.2879 13.3314 10.3409 13.3579C10.3939 13.3844 10.4716 13.4166 10.5739 13.4545C10.6761 13.4924 10.7614 13.5113 10.8295 13.5113C10.9659 13.5113 11.1402 13.4034 11.3523 13.1875C11.5644 12.9716 11.7652 12.7367 11.9545 12.4829C12.1439 12.2291 12.3523 11.9943 12.5795 11.7784C12.8068 11.5625 12.9962 11.4545 13.1477 11.4545C13.2538 11.4545 13.3617 11.481 13.4716 11.5341C13.5814 11.5871 13.7159 11.6685 13.875 11.7784C14.0341 11.8882 14.1288 11.9545 14.1591 11.9773C14.3485 12.0909 14.5511 12.2083 14.767 12.3295C14.983 12.4507 15.2235 12.5833 15.4886 12.7273C15.7538 12.8712 15.9583 12.9848 16.1023 13.0682C16.6326 13.3333 16.9205 13.5341 16.9659 13.6704C16.9886 13.7235 17 13.803 17 13.9091Z" fill="#0F2A59"/>
</svg>
