<svg width="18" height="18" viewBox="0 0 18 18" fill="none" xmlns="http://www.w3.org/2000/svg">
<g clip-path="url(#clip0_516_2048)">
<path fill-rule="evenodd" clip-rule="evenodd" d="M14.9689 3.00607C13.3902 1.42548 11.2906 0.554638 9.05383 0.553711C4.44472 0.553711 0.693577 4.30475 0.691723 8.9151C0.691105 10.3889 1.07611 11.8275 1.8079 13.0956L0.621582 17.4287L5.05446 16.2659C6.2759 16.9322 7.65101 17.2833 9.05043 17.2837H9.05393C13.6625 17.2837 17.4141 13.5323 17.4158 8.92179C17.4168 6.68738 16.5478 4.58655 14.9689 3.00607ZM9.05383 15.8715H9.05095C7.80386 15.871 6.58077 15.5358 5.51352 14.9027L5.25984 14.752L2.6293 15.4421L3.33143 12.8774L3.16612 12.6144C2.47038 11.5078 2.10299 10.2288 2.1036 8.91561C2.10505 5.08361 5.22297 1.966 9.05661 1.966C10.913 1.96662 12.6581 2.69048 13.9703 4.00421C15.2825 5.31793 16.0047 7.06414 16.0041 8.92128C16.0024 12.7536 12.8847 15.8715 9.05383 15.8715ZM12.8662 10.6661C12.6573 10.5615 11.63 10.0562 11.4384 9.98637C11.247 9.91664 11.1076 9.88193 10.9684 10.091C10.8291 10.3001 10.4287 10.7708 10.3068 10.9101C10.1848 11.0496 10.0631 11.0671 9.85411 10.9625C9.64513 10.8579 8.97195 10.6372 8.17382 9.92539C7.55275 9.37137 7.13345 8.68716 7.01151 8.47808C6.88976 8.26879 7.01048 8.16662 7.10317 8.05167C7.32935 7.7708 7.55584 7.47633 7.62547 7.33698C7.6952 7.19752 7.66028 7.07547 7.60796 6.97093C7.55584 6.86639 7.13799 5.83796 6.96392 5.41949C6.79418 5.01224 6.62207 5.06724 6.49374 5.06085C6.372 5.05477 6.23264 5.05354 6.09329 5.05354C5.95404 5.05354 5.72765 5.10576 5.53608 5.31505C5.3446 5.52423 4.8049 6.02964 4.8049 7.05806C4.8049 8.08649 5.55359 9.07999 5.65802 9.21945C5.76246 9.35891 7.13139 11.4693 9.22728 12.3742C9.72578 12.5897 10.1149 12.7181 10.4184 12.8145C10.919 12.9735 11.3743 12.951 11.7344 12.8973C12.1359 12.8372 12.9705 12.3918 13.1448 11.9038C13.3188 11.4157 13.3188 10.9974 13.2665 10.9101C13.2144 10.823 13.075 10.7708 12.8662 10.6661Z" fill="#0F2A59"/>
</g>
<defs>
<clipPath id="clip0_516_2048">
<rect width="18" height="18" fill="white"/>
</clipPath>
</defs>
</svg>
