<svg width="30" height="24" viewBox="0 0 30 24" fill="none" xmlns="http://www.w3.org/2000/svg">
<rect width="30" height="24" rx="3" fill="white"/>
<path d="M3 5.86907C3 4.28453 4.26414 3 5.82353 3H24.1765C25.7359 3 27 4.28453 27 5.86907V18.1309C27 19.7155 25.7359 21 24.1765 21H5.82353C4.26414 21 3 19.7155 3 18.1309V5.86907Z" fill="#EC1C24"/>
<path d="M15.2764 8.48304C15.2846 7.87197 15.8261 7.45153 15.8489 6.63755C16.2366 7.12523 15.5957 8.03921 15.8231 8.56958C15.9272 7.96787 16.5266 7.63689 16.6775 6.83695C16.9845 7.3796 16.2079 8.18189 16.3494 8.74091C16.5459 8.162 17.1903 7.92986 17.464 7.16266C17.6821 7.74683 16.7903 8.41754 16.843 8.99177C17.1271 8.45146 17.8002 8.32281 18.1908 7.60766C18.3154 8.21873 17.3283 8.7415 17.2909 9.31748C17.6564 8.82804 18.3417 8.80582 18.8387 8.16084C18.8662 8.78418 17.8096 9.14556 17.6827 9.70868C18.1201 9.28239 18.7995 9.36777 19.3913 8.80816C19.3217 9.428 18.2218 9.62038 18.0072 10.1566C18.5066 9.804 19.165 9.99463 19.8369 9.53501C19.6714 10.1361 18.5545 10.1543 18.2598 10.6501C18.8071 10.38 19.427 10.6712 20.1638 10.3221C19.9059 10.8893 18.799 10.7326 18.43 11.1764C19.0136 10.9951 19.5814 11.3805 20.3626 11.1507C20.0176 11.6711 18.951 11.3425 18.5171 11.7232C19.1212 11.6354 19.6217 12.1038 20.4287 11.9998C20.0082 12.46 19.0048 11.9688 18.5171 12.2763C19.1282 12.2845 19.5486 12.8266 20.3614 12.8482C19.8737 13.2377 18.9604 12.5944 18.43 12.8231C19.0329 12.9272 19.3632 13.5265 20.1638 13.6774C19.6211 13.9844 18.8183 13.2079 18.2586 13.3494C18.8376 13.5458 19.0709 14.1902 19.8369 14.4639C19.2533 14.6832 18.5832 13.7903 18.0072 13.8429C18.5487 14.1271 18.6779 14.8001 19.3913 15.1908C18.7802 15.3153 18.2581 14.3282 17.6815 14.2908C18.1715 14.6563 18.1932 15.3416 18.8387 15.8387C18.216 15.8661 17.8528 14.8095 17.2909 14.6826C17.7172 15.12 17.6312 15.7995 18.1908 16.3913C17.5704 16.3217 17.3786 15.2217 16.843 15.0071C17.195 15.5065 17.0038 16.165 17.464 16.8368C16.8623 16.6714 16.8447 15.5545 16.3494 15.2598C16.6202 15.8071 16.3278 16.4269 16.6775 17.1637C16.1097 16.9058 16.2664 15.7989 15.8231 15.4299C16.0038 16.0135 15.6197 16.5813 15.8489 17.3625C15.3284 17.0175 15.6571 15.9509 15.2764 15.517C15.3641 16.1211 14.8957 16.6217 14.9998 17.4286C14.5396 17.0082 15.0308 16.0047 14.7232 15.517C14.715 16.1281 14.1736 16.5486 14.1507 17.3614C13.7619 16.8749 14.4039 15.9603 14.1759 15.4299C14.0724 16.0328 13.4724 16.3632 13.3221 17.1637C13.0152 16.6211 13.7917 15.8182 13.6496 15.2598C13.4531 15.8375 12.8087 16.0708 12.5351 16.8368C12.3164 16.2533 13.2093 15.5831 13.1567 15.0071C12.8719 15.5486 12.1988 15.6779 11.8088 16.3913C11.6843 15.7802 12.6713 15.258 12.7087 14.6826C12.3433 15.1715 11.6585 15.1931 11.1615 15.8387C11.1334 15.2159 12.1906 14.8528 12.3175 14.2908C11.8801 14.7171 11.2001 14.6311 10.6083 15.1908C10.6785 14.5703 11.779 14.3785 11.9924 13.8429C11.4936 14.1949 10.8352 14.0037 10.1633 14.4639C10.3294 13.8622 11.4463 13.8447 11.741 13.3494C11.1931 13.6201 10.5732 13.3289 9.83701 13.6774C10.0955 13.1096 11.2012 13.2663 11.5702 12.8231C10.9866 13.0038 10.42 12.6196 9.6382 12.8482C9.98203 12.329 11.0498 12.6564 11.4831 12.2763C10.8785 12.3641 10.3791 11.8951 9.57153 11.9998C9.99256 11.5401 10.9954 12.0307 11.4831 11.7232C10.8726 11.715 10.4522 11.1735 9.6382 11.1507C10.1259 10.7618 11.0399 11.4039 11.5702 11.1758C10.9679 11.0723 10.6375 10.4724 9.8376 10.3221C10.3802 10.0145 11.1825 10.7916 11.7416 10.6496C11.1627 10.4531 10.9305 9.80867 10.1633 9.53501C10.7475 9.31631 11.4182 10.2092 11.9924 10.1566C11.4515 9.87183 11.3235 9.19878 10.6083 8.80874C11.2194 8.68419 11.7421 9.67126 12.3181 9.70868C11.8287 9.34321 11.8065 8.65846 11.1615 8.16142C11.7842 8.13394 12.1462 9.19059 12.7093 9.31748C12.283 8.88008 12.3684 8.20001 11.8088 7.60824C12.4281 7.67841 12.621 8.77892 13.1572 8.99236C12.8041 8.49356 12.9953 7.83571 12.5357 7.16324C13.1368 7.32931 13.1549 8.4462 13.6508 8.74091C13.3806 8.193 13.6718 7.57316 13.3227 6.83754C13.8899 7.09541 13.7332 8.20118 14.1771 8.57016C13.9958 7.98658 14.3811 7.41995 14.1513 6.63813C14.6718 6.98197 14.3431 8.04973 14.7238 8.48304C14.6355 7.8784 15.1045 7.37902 15.0004 6.57147C15.46 6.99191 14.9688 7.99535 15.2764 8.48304Z" fill="#FFD84D"/>
<path d="M15.0005 14.8572C15.3758 14.8571 15.7473 14.7831 16.0939 14.6395C16.4405 14.4958 16.7554 14.2853 17.0207 14.0199C17.2859 13.7546 17.4963 13.4395 17.6398 13.0929C17.7834 12.7462 17.8572 12.3746 17.8571 11.9994C17.857 11.6242 17.7831 11.2527 17.6394 10.9061C17.4957 10.5595 17.2852 10.2446 17.0199 9.97931C16.7545 9.71405 16.4395 9.50366 16.0928 9.36015C15.7461 9.21663 15.3746 9.14281 14.9994 9.14288C14.2416 9.14304 13.515 9.44421 12.9792 9.98013C12.4435 10.5161 12.1427 11.2428 12.1428 12.0006C12.143 12.7584 12.4441 13.485 12.9801 14.0207C13.516 14.5565 14.2428 14.8573 15.0005 14.8572Z" fill="#E8112D"/>
<path d="M14.9995 9.47943C15.7372 9.47943 16.4 9.79524 16.8613 10.3002C16.1372 10.3732 15.5233 10.5441 14.9995 10.8039C14.4757 10.5441 13.8612 10.3732 13.1382 10.3002C13.3741 10.0412 13.6616 9.8344 13.9821 9.69305C14.3026 9.55171 14.6492 9.47895 14.9995 9.47943ZM14.8092 10.9065C14.7514 10.9387 14.6944 10.9723 14.6383 11.0072C14.1687 10.758 13.606 10.5971 12.9373 10.5494C12.9678 10.5063 12.9998 10.4642 13.0333 10.4233C13.728 10.4852 14.3143 10.6513 14.8092 10.9065ZM15.1916 10.9065C15.2499 10.9389 15.3065 10.9725 15.3618 11.0072C15.832 10.758 16.3941 10.5971 17.0629 10.5494C17.0326 10.5063 17.0007 10.4642 16.9674 10.4233C16.2722 10.4852 15.6865 10.6513 15.1916 10.9065ZM12.853 10.679C12.8263 10.7224 12.801 10.7666 12.777 10.8116C13.3992 10.8257 13.9213 10.9695 14.3502 11.2064C14.395 11.1725 14.4406 11.1397 14.4869 11.108C14.0391 10.8635 13.4976 10.7109 12.853 10.679ZM12.7764 13.1878C12.5596 12.8149 12.4795 12.4619 12.4795 12C12.4795 11.6229 12.5608 11.2671 12.7081 10.9471C13.3103 10.943 13.814 11.0744 14.2253 11.303C13.6166 11.802 13.1223 12.3865 12.7764 13.1878ZM13.9725 14.3002C13.8594 14.2566 13.7362 14.1335 13.6314 14.0746C13.6909 13.1277 14.134 12.3488 14.7514 11.6936C14.7974 11.7384 14.8416 11.7832 14.884 11.8309C14.3101 12.502 13.9413 13.3728 13.9725 14.3002ZM17.1477 10.679C17.1742 10.722 17.1995 10.7662 17.2237 10.8116C16.6009 10.8257 16.0789 10.9695 15.6505 11.2064C15.6057 11.1724 15.5599 11.1396 15.5133 11.108C15.9616 10.8635 16.5025 10.7109 17.1477 10.679Z" fill="#FFD84D"/>
<path d="M17.2237 13.1884C17.44 12.8155 17.5207 12.4619 17.5207 12C17.5207 11.6229 17.4388 11.267 17.2915 10.9471C16.6899 10.943 16.1856 11.0744 15.7743 11.303C16.3841 11.802 16.8791 12.3871 17.2237 13.1884ZM15.0001 12.0466C15.452 12.7736 15.5386 13.569 15.5139 14.4676C15.3177 14.5159 15.2116 14.5206 15.0001 14.5206C14.7886 14.5206 14.6825 14.5159 14.4863 14.4676C14.4616 13.615 14.5482 12.8013 15.0001 12.0466ZM16.0247 14.3002C16.1373 14.2566 16.2639 14.17 16.3688 14.1117C16.3093 13.1649 15.8656 12.3488 15.2482 11.6942C15.2027 11.7385 15.1587 11.7843 15.1162 11.8315C15.6912 12.502 16.0559 13.3728 16.0247 14.3002ZM14.6012 11.5593C14.5456 11.5133 14.488 11.4696 14.4286 11.4285C13.7893 11.9953 13.3144 12.654 13.0481 13.5467C13.1465 13.6592 13.1447 13.7423 13.2614 13.8354C13.4264 12.8968 13.9608 12.1785 14.6012 11.5593ZM15.3996 11.5593C15.4532 11.5151 15.5139 11.4686 15.5722 11.4285C16.2115 11.9953 16.6846 12.6658 16.9515 13.559C16.8525 13.6716 16.8384 13.7429 16.7206 13.8359C16.5562 12.8968 16.04 12.1785 15.3996 11.5593ZM15.0001 11.0131C15.0319 11.032 15.1409 11.1003 15.1686 11.1186C15.1256 11.1451 15.0272 11.2117 15.0001 11.2299C14.9448 11.1915 14.8886 11.1543 14.8316 11.1186C14.8593 11.1003 14.9683 11.0314 15.0001 11.0131ZM14.6813 11.2234C14.6383 11.2559 14.5729 11.3059 14.5482 11.3271C14.6101 11.3678 14.6931 11.4308 14.7196 11.4515C14.7521 11.4238 14.8157 11.3672 14.8516 11.3413C14.7966 11.2996 14.7398 11.2603 14.6813 11.2234ZM15.3189 11.2234C15.3619 11.2559 15.4273 11.3059 15.452 11.3271C15.3935 11.3667 15.3363 11.4082 15.2806 11.4515C15.2487 11.4238 15.1845 11.3672 15.1486 11.3413C15.1928 11.3089 15.2859 11.2417 15.3189 11.2234ZM15.0001 11.4585C15.0278 11.4821 15.1097 11.5546 15.1315 11.5764C15.0857 11.6167 15.0419 11.6592 15.0001 11.7036C14.9587 11.659 14.915 11.6166 14.8693 11.5764C14.8905 11.5546 14.973 11.4827 15.0001 11.4585Z" fill="#FFD84D"/>
</svg>
