<svg width="24" height="25" viewBox="0 0 24 25" fill="none" xmlns="http://www.w3.org/2000/svg">
<path d="M11.5189 3.27271C7.92437 3.27271 5 6.19708 5 9.7916C5 14.2525 10.8338 20.8014 11.0822 21.078C11.3155 21.3378 11.7228 21.3374 11.9557 21.078C12.2041 20.8014 18.0379 14.2525 18.0379 9.7916C18.0378 6.19708 15.1134 3.27271 11.5189 3.27271ZM11.5189 13.0714C9.71042 13.0714 8.23912 11.6001 8.23912 9.7916C8.23912 7.98309 9.71045 6.51179 11.5189 6.51179C13.3274 6.51179 14.7987 7.98312 14.7987 9.79163C14.7987 11.6001 13.3274 13.0714 11.5189 13.0714Z" fill="#0F2A59"/>
</svg>
