<svg width="30" height="24" viewBox="0 0 30 24" fill="none" xmlns="http://www.w3.org/2000/svg">
<rect width="30" height="24" rx="6" fill="#E4F2FF"/>
<path d="M27 18C27 18.7956 26.719 19.5587 26.219 20.1213C25.7189 20.6839 25.0406 21 24.3333 21H5.66667C4.95942 21 4.28115 20.6839 3.78105 20.1213C3.28095 19.5587 3 18.7956 3 18V15H27V18Z" fill="#CB0C01"/>
<path d="M3 9H27V15H3V9Z" fill="#0027A6"/>
<path d="M24.3333 3H5.66667C4.95942 3 4.28115 3.31607 3.78105 3.87868C3.28095 4.44129 3 5.20435 3 6L3 9H27V6C27 5.20435 26.719 4.44129 26.219 3.87868C25.7189 3.31607 25.0406 3 24.3333 3Z" fill="#FDF9F9"/>
</svg>
