<svg width="106" height="106" viewBox="0 0 106 106" fill="none" xmlns="http://www.w3.org/2000/svg">
<path fill-rule="evenodd" clip-rule="evenodd" d="M91.896 33.6707L89.1469 28.9003C86.8212 24.8638 81.6672 23.4713 77.6252 25.7874V25.7874C75.7011 26.9208 73.4053 27.2424 71.2439 26.6812C69.0824 26.12 67.233 24.7221 66.1034 22.7958C65.3768 21.5714 64.9863 20.1768 64.9715 18.7531V18.7531C65.037 16.4705 64.1759 14.2585 62.5842 12.6211C60.9925 10.9837 58.8058 10.0603 56.5222 10.0612H50.9837C48.7465 10.0612 46.6015 10.9527 45.0234 12.5384C43.4453 14.1241 42.5641 16.2733 42.5748 18.5105V18.5105C42.5085 23.1295 38.745 26.839 34.1256 26.8385C32.7018 26.8237 31.3072 26.4332 30.0828 25.7065V25.7065C26.0408 23.3905 20.8868 24.783 18.5611 28.8194L15.6099 33.6707C13.287 37.7021 14.6606 42.8529 18.6824 45.1924V45.1924C21.2966 46.7017 22.9071 49.4911 22.9071 52.5097C22.9071 55.5284 21.2966 58.3178 18.6824 59.8271V59.8271C14.6657 62.1508 13.2907 67.2891 15.6099 71.3084V71.3084L18.3994 76.1192C19.4891 78.0854 21.3174 79.5364 23.4798 80.1509C25.6421 80.7655 27.9602 80.493 29.9211 79.3938V79.3938C31.8488 78.269 34.146 77.9608 36.302 78.5378C38.458 79.1147 40.2942 80.529 41.4025 82.4663C42.1291 83.6907 42.5196 85.0853 42.5344 86.509V86.509C42.5344 91.1754 46.3173 94.9583 50.9837 94.9583H56.5222C61.1729 94.9583 64.9492 91.2 64.9715 86.5494V86.5494C64.9607 84.3052 65.8474 82.1498 67.4343 80.5629C69.0212 78.976 71.1766 78.0893 73.4208 78.1001C74.8411 78.1382 76.2299 78.527 77.4635 79.2321V79.2321C81.4949 81.555 86.6457 80.1814 88.9852 76.1596V76.1596L91.896 71.3084C93.0226 69.3745 93.3319 67.0713 92.7552 64.9087C92.1785 62.7462 90.7635 60.9027 88.8235 59.7866V59.7866C86.8835 58.6706 85.4685 56.8271 84.8918 54.6646C84.3151 52.502 84.6244 50.1988 85.751 48.2649C86.4837 46.9857 87.5443 45.9251 88.8235 45.1924V45.1924C92.8212 42.8542 94.1915 37.7335 91.896 33.7111V33.7111V33.6707Z" stroke="#F1F1F1" stroke-width="6.625" stroke-linecap="round" stroke-linejoin="round"/>
<circle cx="53.7731" cy="52.5099" r="11.643" stroke="#F1F1F1" stroke-width="6.625" stroke-linecap="round" stroke-linejoin="round"/>
</svg>
