<svg width="106" height="106" viewBox="0 0 106 106" fill="none" xmlns="http://www.w3.org/2000/svg">
<path d="M12.385 68.3567C12.385 68.3567 13.0122 76.0329 13.1579 78.4532C13.3523 81.6995 14.6066 85.3256 16.7001 87.8431C19.6548 91.4117 23.1352 92.6705 27.7815 92.6793C33.2449 92.6881 72.9728 92.6881 78.4363 92.6793C83.0826 92.6705 86.5629 91.4117 89.5177 87.8431C91.6112 85.3256 92.8655 81.6995 93.0643 78.4532C93.2056 76.0329 93.8328 68.3567 93.8328 68.3567" stroke="#F1F1F1" stroke-width="6.625" stroke-linecap="round" stroke-linejoin="round"/>
<path d="M37.5242 23.5386V21.9C37.5242 16.5117 41.8878 12.148 47.2762 12.148H58.68C64.0639 12.148 68.432 16.5117 68.432 21.9L68.4364 23.5386" stroke="#F1F1F1" stroke-width="6.625" stroke-linecap="round" stroke-linejoin="round"/>
<path d="M52.9781 73.662V67.9468" stroke="#F1F1F1" stroke-width="6.625" stroke-linecap="round" stroke-linejoin="round"/>
<path fill-rule="evenodd" clip-rule="evenodd" d="M12.1455 37.0518V52.3644C20.6167 57.9515 30.7662 61.8646 41.905 63.4149C43.2388 58.5521 47.6246 54.9879 52.9555 54.9879C58.2025 54.9879 62.6766 58.5521 63.9221 63.459C75.1051 61.9088 85.2943 57.9956 93.8097 52.3644V37.0518C93.8097 29.57 87.7898 23.5456 80.3079 23.5456H25.6914C18.2096 23.5456 12.1455 29.57 12.1455 37.0518Z" stroke="#F1F1F1" stroke-width="6.625" stroke-linecap="round" stroke-linejoin="round"/>
</svg>
