<svg width="67" height="22" viewBox="0 0 67 22" fill="none" xmlns="http://www.w3.org/2000/svg">
<path d="M0.666193 21V17.5398L1.2429 17.4901C1.98532 17.4304 2.58523 17.1487 3.04261 16.6449C3.5 16.1345 3.84138 15.3224 4.06676 14.2088C4.29877 13.0885 4.44792 11.5838 4.5142 9.6946L4.85227 0.636363H18.6733V21H14.4872V4.08665H8.84943L8.53125 11.1761C8.42519 13.4564 8.15341 15.3191 7.71591 16.7642C7.28504 18.2093 6.59564 19.2765 5.64773 19.9659C4.70644 20.6553 3.41714 21 1.77983 21H0.666193ZM29.044 21.2983C27.4995 21.2983 26.1638 20.9702 25.0369 20.3139C23.9167 19.651 23.0516 18.7296 22.4418 17.5497C21.8319 16.3632 21.527 14.9877 21.527 13.4233C21.527 11.8456 21.8319 10.4669 22.4418 9.28693C23.0516 8.10038 23.9167 7.17898 25.0369 6.52273C26.1638 5.85985 27.4995 5.52841 29.044 5.52841C30.5885 5.52841 31.9209 5.85985 33.0412 6.52273C34.1681 7.17898 35.0365 8.10038 35.6463 9.28693C36.2562 10.4669 36.5611 11.8456 36.5611 13.4233C36.5611 14.9877 36.2562 16.3632 35.6463 17.5497C35.0365 18.7296 34.1681 19.651 33.0412 20.3139C31.9209 20.9702 30.5885 21.2983 29.044 21.2983ZM29.0639 18.017C29.7666 18.017 30.3532 17.8182 30.8239 17.4205C31.2945 17.0161 31.6491 16.4659 31.8878 15.7699C32.133 15.0739 32.2557 14.2817 32.2557 13.3935C32.2557 12.5052 32.133 11.7131 31.8878 11.017C31.6491 10.321 31.2945 9.77083 30.8239 9.36648C30.3532 8.96212 29.7666 8.75994 29.0639 8.75994C28.3546 8.75994 27.758 8.96212 27.2741 9.36648C26.7969 9.77083 26.4356 10.321 26.1903 11.017C25.9517 11.7131 25.8324 12.5052 25.8324 13.3935C25.8324 14.2817 25.9517 15.0739 26.1903 15.7699C26.4356 16.4659 26.7969 17.0161 27.2741 17.4205C27.758 17.8182 28.3546 18.017 29.0639 18.017ZM49.7756 5.72727V9.05824H43.4318V21H39.3153V5.72727H49.7756ZM58.712 21.2983C57.1675 21.2983 55.8318 20.9702 54.7049 20.3139C53.5846 19.651 52.7196 18.7296 52.1097 17.5497C51.4999 16.3632 51.195 14.9877 51.195 13.4233C51.195 11.8456 51.4999 10.4669 52.1097 9.28693C52.7196 8.10038 53.5846 7.17898 54.7049 6.52273C55.8318 5.85985 57.1675 5.52841 58.712 5.52841C60.2565 5.52841 61.5889 5.85985 62.7092 6.52273C63.8361 7.17898 64.7044 8.10038 65.3143 9.28693C65.9241 10.4669 66.229 11.8456 66.229 13.4233C66.229 14.9877 65.9241 16.3632 65.3143 17.5497C64.7044 18.7296 63.8361 19.651 62.7092 20.3139C61.5889 20.9702 60.2565 21.2983 58.712 21.2983ZM58.7319 18.017C59.4345 18.017 60.0212 17.8182 60.4918 17.4205C60.9625 17.0161 61.3171 16.4659 61.5558 15.7699C61.801 15.0739 61.9237 14.2817 61.9237 13.3935C61.9237 12.5052 61.801 11.7131 61.5558 11.017C61.3171 10.321 60.9625 9.77083 60.4918 9.36648C60.0212 8.96212 59.4345 8.75994 58.7319 8.75994C58.0226 8.75994 57.426 8.96212 56.9421 9.36648C56.4648 9.77083 56.1036 10.321 55.8583 11.017C55.6197 11.7131 55.5004 12.5052 55.5004 13.3935C55.5004 14.2817 55.6197 15.0739 55.8583 15.7699C56.1036 16.4659 56.4648 17.0161 56.9421 17.4205C57.426 17.8182 58.0226 18.017 58.7319 18.017Z" fill="#0F2A59"/>
</svg>
